<svg xmlns="http://www.w3.org/2000/svg" width="18" height="16" viewBox="0 0 18 16">
  <g>
    <g>
      <path fill="#eee" d="M17.503.295a7.053 7.053 0 0 1-2.346.98c-.673-.786-1.632-1.276-2.695-1.276-2.04 0-3.693 1.81-3.693 4.04 0 .316.033.625.096.92C5.796 4.79 3.075 3.18 1.254.737a4.31 4.31 0 0 0-.5 2.03c0 1.403.653 2.64 1.643 3.363a3.455 3.455 0 0 1-1.673-.506v.05c0 1.957 1.273 3.59 2.962 3.961a3.412 3.412 0 0 1-1.668.07c.47 1.605 1.833 2.772 3.448 2.805-1.263 1.084-2.856 1.73-4.585 1.73-.299 0-.592-.02-.881-.056C1.634 15.33 3.574 16 5.66 16c6.793 0 10.506-6.156 10.506-11.495l-.012-.524A7.857 7.857 0 0 0 18 1.892c-.662.32-1.373.54-2.12.637.762-.5 1.347-1.294 1.623-2.234z" />
    </g>
  </g>
</svg>
